<svg width="28" height="27" viewBox="0 0 28 27" fill="none" xmlns="http://www.w3.org/2000/svg">
<path d="M1.04807 4.46267C0.466736 5.124 0.466736 6.26 0.466736 8.52934V21.0547C0.466736 22.6627 0.466736 23.4667 0.886736 24.072C1.3054 24.6773 2.03874 24.932 3.5054 25.44L5.23074 26.0387C6.1654 26.3627 6.88407 26.612 7.48807 26.772C7.88274 26.8773 8.24407 26.568 8.24407 26.16V5.96C8.23946 5.79808 8.18136 5.64223 8.07884 5.51681C7.97633 5.39138 7.83517 5.30342 7.6774 5.26667C7.15874 5.13467 6.53474 4.91867 5.68007 4.62267C3.6094 3.904 2.5734 3.54534 1.78674 3.90934C1.50457 4.04017 1.25294 4.22866 1.04807 4.46267ZM14.6267 2.24134L12.5787 3.66134C11.8387 4.17467 11.2947 4.552 10.8321 4.82C10.723 4.88091 10.6319 4.96936 10.5678 5.07653C10.5037 5.18369 10.4689 5.30581 10.4667 5.43067V25.4933C10.4667 25.9867 10.9787 26.296 11.3947 26.0293C11.8414 25.744 12.3534 25.3893 12.9734 24.96L15.0214 23.54C15.7614 23.0267 16.3054 22.6493 16.7681 22.3813C16.8771 22.3204 16.9682 22.232 17.0323 22.1248C17.0964 22.0176 17.1313 21.8955 17.1334 21.7707V1.70667C17.1334 1.212 16.6214 0.904003 16.2054 1.16934C15.7587 1.456 15.2467 1.81067 14.6267 2.24134ZM24.0934 1.76L22.3694 1.16267C21.4347 0.83867 20.7161 0.589336 20.1121 0.429336C19.7174 0.324003 19.3561 0.633337 19.3561 1.04134V21.2413C19.3607 21.4033 19.4188 21.5591 19.5213 21.6845C19.6238 21.81 19.765 21.8979 19.9227 21.9347C20.4414 22.0667 21.0654 22.2813 21.9201 22.5787C23.9907 23.2973 25.0267 23.656 25.8134 23.292C26.0956 23.1612 26.3472 22.9727 26.5521 22.7387C27.1334 22.0773 27.1334 20.9413 27.1334 18.672V6.14667C27.1334 4.53867 27.1334 3.73334 26.7134 3.12934C26.2947 2.524 25.5614 2.26934 24.0947 1.76134" fill="black"/>
</svg>
