<svg width="27" height="27" viewBox="0 0 27 27" fill="none" xmlns="http://www.w3.org/2000/svg" className="h-3/4 w-3/4 " >
          <path d="M13.8 0.600006C6.63192 0.600006 0.800049 6.43188 0.800049 13.6C0.800049 20.7681 6.63192 26.6 13.8 26.6C20.9682 26.6 26.8 20.7681 26.8 13.6C26.8 6.43188 20.9682 0.600006 13.8 0.600006ZM20.3669 7.68313L17.4369 15.0081C17.2357 15.5112 16.9344 15.9682 16.5513 16.3513C16.1682 16.7344 15.7112 17.0357 15.2082 17.2369L7.88317 20.1669C7.79231 20.2033 7.69277 20.2122 7.59689 20.1925C7.50102 20.1728 7.41302 20.1254 7.34381 20.0562C7.27461 19.987 7.22723 19.899 7.20757 19.8032C7.1879 19.7073 7.1968 19.6077 7.23317 19.5169L10.1632 12.1919C10.3644 11.6888 10.6656 11.2318 11.0488 10.8487C11.4319 10.4656 11.8888 10.1643 12.3919 9.96313L19.7169 7.03313C19.8078 6.99676 19.9073 6.98786 20.0032 7.00752C20.0991 7.02719 20.1871 7.07457 20.2563 7.14377C20.3255 7.21298 20.3729 7.30097 20.3925 7.39685C20.4122 7.49273 20.4033 7.59227 20.3669 7.68313Z" fill="black"/>
          </svg>
