<svg width="212" height="55" viewBox="0 0 212 55" fill="none" xmlns="http://www.w3.org/2000/svg">
<path d="M14.75 33.3403H11.11V42.1003H3.55V13.3803H14.75C22.27 13.3803 26.79 16.7403 26.79 23.1803C26.79 29.6603 22.27 33.3403 14.75 33.3403ZM14.71 19.7403H11.11V26.9803H14.71C17.71 26.9803 19.27 25.4603 19.27 23.2603C19.27 21.0203 17.71 19.7403 14.71 19.7403ZM39.7403 42.7003C31.4603 42.7003 24.9403 36.4203 24.9403 27.7003C24.9403 18.9803 31.4603 12.7803 39.7403 12.7803C48.0603 12.7803 54.5803 18.9803 54.5803 27.7003C54.5803 36.4203 48.0603 42.7003 39.7403 42.7003ZM39.7403 35.9403C44.2603 35.9403 46.7803 32.2203 46.7803 27.7003C46.7803 23.1803 44.2603 19.5403 39.7403 19.5403C35.2203 19.5403 32.7003 23.1803 32.7003 27.7003C32.7003 32.2203 35.2203 35.9403 39.7403 35.9403ZM74.1353 42.1003H54.4953V13.3803H62.0553V35.2603H74.1353V42.1003ZM81.4944 31.3003V42.1003H73.9344V31.3003L63.8944 13.3803H72.0544L77.9744 24.3803L84.0144 13.3803H91.6144L81.4944 31.3003ZM100.638 42.7003C92.2784 42.7003 85.7184 36.5403 85.7184 27.5803C85.7184 19.1003 91.9584 12.7803 100.398 12.7803C107.598 12.7803 112.918 16.9403 114.918 23.3803H105.958C105.238 21.1803 103.118 19.5403 100.198 19.5403C96.4784 19.5403 93.4784 22.1403 93.4784 27.7803C93.4784 32.5803 95.8384 36.3003 101.038 36.3003C104.318 36.3003 106.358 34.4603 107.198 32.0603H100.278V26.1003H115.278C115.878 35.5803 110.158 42.7003 100.638 42.7003ZM134.874 42.1003H115.234V13.3803H122.794V35.2603H134.874V42.1003ZM145.604 42.7003C137.324 42.7003 130.804 36.4203 130.804 27.7003C130.804 18.9803 137.324 12.7803 145.604 12.7803C153.924 12.7803 160.444 18.9803 160.444 27.7003C160.444 36.4203 153.924 42.7003 145.604 42.7003ZM145.604 35.9403C150.124 35.9403 152.644 32.2203 152.644 27.7003C152.644 23.1803 150.124 19.5403 145.604 19.5403C141.084 19.5403 138.564 23.1803 138.564 27.7003C138.564 32.2203 141.084 35.9403 145.604 35.9403ZM174.129 42.1003H166.569V20.2203H157.769V13.3803H182.929V20.2203H174.129V42.1003Z" fill="black"/>
<path d="M196.25 12.1015C187.69 12.1015 180.75 18.2327 180.75 25.7975C180.75 29.6441 182.55 33.1093 185.439 35.5974C184.809 39.2405 180.737 40.7237 181.015 41.7262C184.656 43.2336 191.867 39.7345 192.961 39.1921C194.018 39.3931 195.125 39.4948 196.25 39.4948C204.81 39.4948 211.75 33.3623 211.75 25.7975C211.75 18.2327 204.809 12.1015 196.25 12.1015Z" fill="black"/>
</svg>
