<svg width="170" height="120" viewBox="0 0 170 120" fill="none" xmlns="http://www.w3.org/2000/svg">
<g filter="url(#filter0_d_0_1)">
<rect x="10.5" y="10.5" width="149" height="99" rx="9.5" fill="white" stroke="black"/>
</g>
<g clip-path="url(#clip0_0_1)">
<path fill-rule="evenodd" clip-rule="evenodd" d="M86.4286 51.4286C86.4286 51.0497 86.2781 50.6863 86.0102 50.4184C85.7422 50.1505 85.3789 50 85 50C84.6211 50 84.2578 50.1505 83.9898 50.4184C83.7219 50.6863 83.5714 51.0497 83.5714 51.4286V58.5714H76.4286C76.0497 58.5714 75.6863 58.7219 75.4184 58.9898C75.1505 59.2578 75 59.6211 75 60C75 60.3789 75.1505 60.7422 75.4184 61.0102C75.6863 61.2781 76.0497 61.4286 76.4286 61.4286H83.5714V68.5714C83.5714 68.9503 83.7219 69.3137 83.9898 69.5816C84.2578 69.8495 84.6211 70 85 70C85.3789 70 85.7422 69.8495 86.0102 69.5816C86.2781 69.3137 86.4286 68.9503 86.4286 68.5714V61.4286H93.5714C93.9503 61.4286 94.3137 61.2781 94.5816 61.0102C94.8495 60.7422 95 60.3789 95 60C95 59.6211 94.8495 59.2578 94.5816 58.9898C94.3137 58.7219 93.9503 58.5714 93.5714 58.5714H86.4286V51.4286Z" fill="black"/>
</g>
<defs>
<filter id="filter0_d_0_1" x="0" y="0" width="170" height="120" filterUnits="userSpaceOnUse" color-interpolation-filters="sRGB">
<feFlood flood-opacity="0" result="BackgroundImageFix"/>
<feColorMatrix in="SourceAlpha" type="matrix" values="0 0 0 0 0 0 0 0 0 0 0 0 0 0 0 0 0 0 127 0" result="hardAlpha"/>
<feOffset/>
<feGaussianBlur stdDeviation="5"/>
<feComposite in2="hardAlpha" operator="out"/>
<feColorMatrix type="matrix" values="0 0 0 0 0 0 0 0 0 0 0 0 0 0 0 0 0 0 0.1 0"/>
<feBlend mode="normal" in2="BackgroundImageFix" result="effect1_dropShadow_0_1"/>
<feBlend mode="normal" in="SourceGraphic" in2="effect1_dropShadow_0_1" result="shape"/>
</filter>
<clipPath id="clip0_0_1">
<rect width="20" height="20" fill="white" transform="translate(75 50)"/>
</clipPath>
</defs>
</svg>
