<svg width="401" height="69" viewBox="0 0 401 69" fill="none" xmlns="http://www.w3.org/2000/svg">
<path d="M2.9499 11.5998C2.9499 6.00792 7.48302 1.4748 13.0749 1.4748H329.65V68.3248H13.0749C7.48301 68.3248 2.9499 63.7917 2.9499 58.1998V11.5998Z" fill="white"/>
<path d="M2.9499 11.5998C2.9499 6.00792 7.48302 1.4748 13.0749 1.4748H329.65V68.3248H13.0749C7.48301 68.3248 2.9499 63.7917 2.9499 58.1998V11.5998Z" stroke="black" stroke-width="1.35"/>
<path d="M39.9849 32.2699L34.4199 47.4529H32.1099L33.7059 43.2529L29.3169 32.2699H31.6059L34.8399 40.7539L37.8429 32.2699H39.9849ZM45.8044 43.6099C42.6544 43.6099 40.3444 41.1319 40.3444 37.8349C40.3444 34.5379 42.6544 32.0599 45.8044 32.0599C48.9544 32.0599 51.2644 34.5379 51.2644 37.8349C51.2644 41.1319 48.9544 43.6099 45.8044 43.6099ZM45.8044 41.7409C47.6314 41.7409 49.0804 40.2709 49.0804 37.8349C49.0804 35.3989 47.6314 33.9499 45.8044 33.9499C43.9774 33.9499 42.5494 35.3989 42.5494 37.8349C42.5494 40.2709 43.9774 41.7409 45.8044 41.7409ZM60.3775 38.8219V32.2699H62.4985V43.3999H60.5245V41.6359C59.9365 42.7909 58.6345 43.6099 57.1225 43.6099C54.8755 43.6099 53.3215 42.2869 53.3215 39.4309V32.2699H55.4425V39.0109C55.4425 40.9429 56.4085 41.7409 57.7945 41.7409C59.2225 41.7409 60.3775 40.5649 60.3775 38.8219ZM67.5651 37.7089V43.3999H65.4441V32.2699H67.4181V34.6219C68.1951 33.0889 69.8751 32.1229 71.7021 32.1229V34.3279C69.3081 34.2019 67.5651 35.2519 67.5651 37.7089ZM75.5016 37.1209V43.3999H73.3806V32.2699H75.3546V34.1179C76.1106 32.8789 77.3706 32.0599 78.9036 32.0599C81.1926 32.0599 82.7046 33.5299 82.7046 36.1969V43.3999H80.5836V36.9109C80.5836 34.9999 79.7436 33.9289 78.1686 33.9289C76.7196 33.9289 75.5016 35.1469 75.5016 37.1209ZM92.2623 43.3999V41.6779C91.5693 42.9169 90.3303 43.6099 88.6923 43.6099C86.3823 43.6099 84.8703 42.2869 84.8703 40.2499C84.8703 38.0659 86.6133 36.9319 89.9313 36.9319C90.5823 36.9319 91.1073 36.9529 92.0103 37.0579V36.2389C92.0103 34.6429 91.1493 33.7399 89.6793 33.7399C88.1253 33.7399 87.1803 34.6639 87.1173 36.2179H85.1853C85.2903 33.7189 87.0753 32.0599 89.6793 32.0599C92.4303 32.0599 94.0263 33.6139 94.0263 36.2599V43.3999H92.2623ZM86.8863 40.1869C86.8863 41.3419 87.7473 42.0979 89.1123 42.0979C90.8973 42.0979 92.0103 40.9849 92.0103 39.2839V38.3809C91.1913 38.2759 90.6033 38.2549 90.0573 38.2549C87.9363 38.2549 86.8863 38.8849 86.8863 40.1869ZM98.9831 43.3999H96.8621V32.2699H98.8361V34.1179C99.5921 32.8369 100.789 32.0599 102.322 32.0599C103.96 32.0599 105.199 32.8999 105.703 34.3699C106.48 32.9419 107.761 32.0599 109.462 32.0599C111.751 32.0599 113.221 33.5509 113.221 36.1969V43.3999H111.1V36.8689C111.1 35.0209 110.281 33.9289 108.727 33.9289C107.278 33.9289 106.102 35.1469 106.102 37.0159V43.3999H103.981V36.8689C103.981 35.0209 103.162 33.9289 101.608 33.9289C100.138 33.9289 98.9831 35.1469 98.9831 37.0159V43.3999ZM120.635 43.6099C117.422 43.6099 115.259 41.2789 115.259 37.7719C115.259 34.4749 117.506 32.0599 120.572 32.0599C123.89 32.0599 126.095 34.7479 125.717 38.3599H117.422C117.59 40.6279 118.724 41.9509 120.593 41.9509C122.168 41.9509 123.26 41.0899 123.617 39.6409H125.717C125.171 42.1189 123.26 43.6099 120.635 43.6099ZM120.53 33.6559C118.829 33.6559 117.674 34.8739 117.443 36.9529H123.47C123.365 34.8949 122.252 33.6559 120.53 33.6559ZM142 44.4919V46.2769C140.53 47.1589 138.661 47.6629 136.624 47.6629C131.332 47.6629 127.258 43.5469 127.258 38.3389C127.258 33.1099 131.416 28.9939 136.834 28.9939C142.105 28.9939 145.969 32.6479 145.969 37.0999C145.969 40.4809 144.037 42.6859 141.475 42.6859C139.921 42.6859 139.039 42.0139 138.703 41.0059C137.968 42.0979 136.876 42.6859 135.532 42.6859C133.39 42.6859 131.941 41.0269 131.941 38.6329C131.941 35.9239 133.621 33.8449 136.015 33.8449C137.338 33.8449 138.283 34.4329 138.808 35.5459L139.081 34.1389H141.013L140.194 38.5909C140.131 38.9269 140.089 39.2839 140.089 39.5569C140.089 40.5229 140.614 41.0479 141.559 41.0479C143.113 41.0479 144.037 39.5779 144.037 37.2889C144.037 33.7609 141.181 30.6319 136.834 30.6319C132.424 30.6319 129.19 33.9919 129.19 38.3389C129.19 42.6439 132.34 46.0249 136.624 46.0249C138.85 46.0249 140.761 45.3949 142 44.4919ZM133.978 38.5069C133.978 39.9979 134.734 41.0479 135.931 41.0479C137.296 41.0479 138.304 39.7249 138.304 38.0029C138.304 36.4069 137.611 35.4829 136.351 35.4829C134.86 35.4829 133.978 36.8479 133.978 38.5069ZM147.395 37.8349C147.395 34.4539 149.327 32.0599 152.33 32.0599C153.821 32.0599 155.123 32.8159 155.9 34.1809V28.3219H158.021V43.3999H156.047V41.4049C155.249 42.8119 153.905 43.6099 152.33 43.6099C149.327 43.6099 147.395 41.1739 147.395 37.8349ZM149.6 37.8349C149.6 40.3129 150.902 41.7199 152.75 41.7199C154.556 41.7199 155.9 40.2499 155.9 37.7929C155.9 35.2939 154.514 33.9289 152.75 33.9289C150.902 33.9289 149.6 35.3149 149.6 37.8349ZM165.632 43.6099C162.482 43.6099 160.172 41.1319 160.172 37.8349C160.172 34.5379 162.482 32.0599 165.632 32.0599C168.782 32.0599 171.092 34.5379 171.092 37.8349C171.092 41.1319 168.782 43.6099 165.632 43.6099ZM165.632 41.7409C167.459 41.7409 168.908 40.2709 168.908 37.8349C168.908 35.3989 167.459 33.9499 165.632 33.9499C163.805 33.9499 162.377 35.3989 162.377 37.8349C162.377 40.2709 163.805 41.7409 165.632 41.7409ZM175.375 43.3999H173.254V32.2699H175.228V34.1179C175.984 32.8369 177.181 32.0599 178.714 32.0599C180.352 32.0599 181.591 32.8999 182.095 34.3699C182.872 32.9419 184.153 32.0599 185.854 32.0599C188.143 32.0599 189.613 33.5509 189.613 36.1969V43.3999H187.492V36.8689C187.492 35.0209 186.673 33.9289 185.119 33.9289C183.67 33.9289 182.494 35.1469 182.494 37.0159V43.3999H180.373V36.8689C180.373 35.0209 179.554 33.9289 178 33.9289C176.53 33.9289 175.375 35.1469 175.375 37.0159V43.3999ZM199.19 43.3999V41.6779C198.497 42.9169 197.258 43.6099 195.62 43.6099C193.31 43.6099 191.798 42.2869 191.798 40.2499C191.798 38.0659 193.541 36.9319 196.859 36.9319C197.51 36.9319 198.035 36.9529 198.938 37.0579V36.2389C198.938 34.6429 198.077 33.7399 196.607 33.7399C195.053 33.7399 194.108 34.6639 194.045 36.2179H192.113C192.218 33.7189 194.003 32.0599 196.607 32.0599C199.358 32.0599 200.954 33.6139 200.954 36.2599V43.3999H199.19ZM193.814 40.1869C193.814 41.3419 194.675 42.0979 196.04 42.0979C197.825 42.0979 198.938 40.9849 198.938 39.2839V38.3809C198.119 38.2759 197.531 38.2549 196.985 38.2549C194.864 38.2549 193.814 38.8849 193.814 40.1869ZM206.373 29.6869C206.373 30.4849 205.743 31.0939 204.84 31.0939C203.937 31.0939 203.286 30.4849 203.286 29.6869C203.286 28.8679 203.937 28.2799 204.84 28.2799C205.743 28.2799 206.373 28.8679 206.373 29.6869ZM205.911 43.3999H203.79V32.2699H205.911V43.3999ZM210.976 37.1209V43.3999H208.855V32.2699H210.829V34.1179C211.585 32.8789 212.845 32.0599 214.378 32.0599C216.667 32.0599 218.179 33.5299 218.179 36.1969V43.3999H216.058V36.9109C216.058 34.9999 215.218 33.9289 213.643 33.9289C212.194 33.9289 210.976 35.1469 210.976 37.1209ZM223.873 41.8879C223.873 42.8329 223.222 43.5049 222.256 43.5049C221.311 43.5049 220.639 42.8329 220.639 41.8879C220.639 40.9009 221.311 40.2289 222.256 40.2289C223.222 40.2289 223.873 40.9009 223.873 41.8879ZM230.532 43.6309C227.487 43.6309 225.345 41.2369 225.345 37.8349C225.345 34.4749 227.529 32.0599 230.532 32.0599C233.283 32.0599 235.278 33.8869 235.677 36.7849H233.451C233.22 34.9999 232.107 33.9289 230.553 33.9289C228.726 33.9289 227.529 35.4829 227.529 37.8349C227.529 40.2079 228.726 41.7409 230.553 41.7409C232.128 41.7409 233.22 40.6909 233.472 38.8849H235.677C235.299 41.8249 233.325 43.6309 230.532 43.6309ZM242.372 43.6099C239.222 43.6099 236.912 41.1319 236.912 37.8349C236.912 34.5379 239.222 32.0599 242.372 32.0599C245.522 32.0599 247.832 34.5379 247.832 37.8349C247.832 41.1319 245.522 43.6099 242.372 43.6099ZM242.372 41.7409C244.199 41.7409 245.648 40.2709 245.648 37.8349C245.648 35.3989 244.199 33.9499 242.372 33.9499C240.545 33.9499 239.117 35.3989 239.117 37.8349C239.117 40.2709 240.545 41.7409 242.372 41.7409ZM252.115 43.3999H249.994V32.2699H251.968V34.1179C252.724 32.8369 253.921 32.0599 255.454 32.0599C257.092 32.0599 258.331 32.8999 258.835 34.3699C259.612 32.9419 260.893 32.0599 262.594 32.0599C264.883 32.0599 266.353 33.5509 266.353 36.1969V43.3999H264.232V36.8689C264.232 35.0209 263.413 33.9289 261.859 33.9289C260.41 33.9289 259.234 35.1469 259.234 37.0159V43.3999H257.113V36.8689C257.113 35.0209 256.294 33.9289 254.74 33.9289C253.27 33.9289 252.115 35.1469 252.115 37.0159V43.3999Z" fill="black"/>
<path d="M330.325 0.799805H387.725C393.689 0.799805 398.525 5.63513 398.525 11.5998V58.1998C398.525 64.1645 393.69 68.9998 387.725 68.9998H330.325V0.799805Z" fill="black"/>
<path d="M376.279 35.6163L367.166 44.7288C366.977 44.9188 366.719 45.0255 366.45 45.0255C366.181 45.0255 365.924 44.9188 365.734 44.7288C365.544 44.5388 365.437 44.2812 365.437 44.0125C365.437 43.7438 365.544 43.4861 365.734 43.2961L373.119 35.9125H353.288C353.019 35.9125 352.762 35.8058 352.572 35.6159C352.382 35.426 352.275 35.1685 352.275 34.9C352.275 34.6314 352.382 34.3739 352.572 34.184C352.762 33.9942 353.019 33.8875 353.288 33.8875H373.119L365.734 26.5038C365.544 26.3138 365.437 26.0562 365.437 25.7875C365.437 25.5188 365.544 25.2611 365.734 25.0711C365.924 24.8811 366.181 24.7744 366.45 24.7744C366.719 24.7744 366.977 24.8811 367.166 25.0711L376.279 34.1836C376.373 34.2777 376.448 34.3893 376.499 34.5122C376.55 34.6352 376.576 34.7669 376.576 34.9C376.576 35.033 376.55 35.1648 376.499 35.2877C376.448 35.4106 376.373 35.5223 376.279 35.6163Z" fill="white"/>
</svg>
