<svg width="30" height="27" viewBox="0 0 30 27" fill="none" xmlns="http://www.w3.org/2000/svg">
<path fill-rule="evenodd" clip-rule="evenodd" d="M26.4667 11.2133L27.5093 12.048C27.7169 12.2098 27.9799 12.2832 28.2412 12.2523C28.5025 12.2215 28.7412 12.0889 28.9054 11.8833C29.0696 11.6777 29.1462 11.4156 29.1185 11.1539C29.0907 10.8922 28.961 10.652 28.7573 10.4853L17.924 1.81867C17.0374 1.10916 15.9356 0.722595 14.8 0.722595C13.6644 0.722595 12.5627 1.10916 11.676 1.81867L0.842675 10.4853C0.635452 10.651 0.50253 10.8922 0.473149 11.1559C0.443769 11.4196 0.520336 11.6841 0.686008 11.8913C0.85168 12.0986 1.09289 12.2315 1.35656 12.2609C1.62024 12.2902 1.88479 12.2137 2.09201 12.048L3.13334 11.2133V24.9333H1.46667C1.20146 24.9333 0.947104 25.0387 0.759568 25.2262C0.572032 25.4138 0.466675 25.6681 0.466675 25.9333C0.466675 26.1986 0.572032 26.4529 0.759568 26.6404C0.947104 26.828 1.20146 26.9333 1.46667 26.9333H28.1333C28.3986 26.9333 28.6529 26.828 28.8404 26.6404C29.028 26.4529 29.1333 26.1986 29.1333 25.9333C29.1333 25.6681 29.028 25.4138 28.8404 25.2262C28.6529 25.0387 28.3986 24.9333 28.1333 24.9333H26.4667V11.2133ZM11.1333 9.26667C11.1333 8.29421 11.5196 7.36158 12.2073 6.67395C12.8949 5.98631 13.8275 5.6 14.8 5.6C15.7725 5.6 16.7051 5.98631 17.3927 6.67395C18.0804 7.36158 18.4667 8.29421 18.4667 9.26667C18.4667 10.2391 18.0804 11.1718 17.3927 11.8594C16.7051 12.547 15.7725 12.9333 14.8 12.9333C13.8275 12.9333 12.8949 12.547 12.2073 11.8594C11.5196 11.1718 11.1333 10.2391 11.1333 9.26667ZM14.8667 14.2667C15.752 14.2667 16.516 14.2667 17.128 14.3493C17.784 14.4373 18.412 14.636 18.9213 15.1453C19.4307 15.6547 19.6293 16.2827 19.7173 16.9387C19.7947 17.512 19.8 18.2187 19.8 19.036V24.9333H17.8V19.2667C17.8 18.296 17.7973 17.6667 17.736 17.2053C17.6773 16.772 17.584 16.636 17.5067 16.56C17.4307 16.484 17.2947 16.3893 16.8613 16.3307C16.3987 16.2693 15.7707 16.2667 14.8 16.2667C13.8293 16.2667 13.2 16.2693 12.7387 16.3307C12.3053 16.3893 12.1693 16.484 12.0933 16.56C12.0173 16.636 11.9227 16.772 11.864 17.2053C11.8027 17.668 11.8 18.296 11.8 19.2667V24.9333H9.80001V19.2C9.80001 18.3147 9.80001 17.5507 9.88267 16.9387C9.97067 16.2827 10.1693 15.6547 10.6787 15.1453C11.188 14.636 11.8173 14.4373 12.472 14.3493C13.084 14.2667 13.848 14.2667 14.7347 14.2667H14.8667Z" fill="black"/>
</svg>
