<svg width="80" height="80" viewBox="0 0 80 80" fill="none" xmlns="http://www.w3.org/2000/svg">
<path fill-rule="evenodd" clip-rule="evenodd" d="M39.999 0C50.6077 0 60.7818 4.21427 68.2833 11.7157C75.7848 19.2172 79.999 29.3913 79.999 40C79.999 50.6087 75.7848 60.7828 68.2833 68.2843C60.7818 75.7857 50.6077 80 39.999 80C29.3904 80 19.2162 75.7857 11.7148 68.2843C4.2133 60.7828 -0.000976562 50.6087 -0.000976562 40C-0.000976562 29.3913 4.2133 19.2172 11.7148 11.7157C19.2162 4.21427 29.3904 0 39.999 0ZM26.6657 29.3333V32.4533C25.1053 33.005 23.7544 34.0271 22.7992 35.3787C21.844 36.7303 21.3315 38.3449 21.3324 40V56C21.3324 58.1217 22.1752 60.1566 23.6755 61.6569C25.1758 63.1571 27.2106 64 29.3324 64H50.6657C52.7874 64 54.8223 63.1571 56.3225 61.6569C57.8228 60.1566 58.6657 58.1217 58.6657 56V40C58.6666 38.3449 58.1541 36.7303 57.1989 35.3787C56.2437 34.0271 54.8928 33.005 53.3324 32.4533V29.3333C53.3324 25.7971 51.9276 22.4057 49.4271 19.9052C46.9266 17.4048 43.5352 16 39.999 16C36.4628 16 33.0714 17.4048 30.5709 19.9052C28.0704 22.4057 26.6657 25.7971 26.6657 29.3333Z" fill="black"/>
</svg>
