<svg width="32" height="20" viewBox="0 0 32 20" fill="none" xmlns="http://www.w3.org/2000/svg">
<path d="M25.0002 2V18C25.0002 18.5304 24.7895 19.0391 24.4145 19.4142C24.0394 19.7893 23.5307 20 23.0002 20H21.0002C20.4698 20 19.9611 19.7893 19.586 19.4142C19.211 19.0391 19.0002 18.5304 19.0002 18V11H13.0002V18C13.0002 18.5304 12.7895 19.0391 12.4145 19.4142C12.0394 19.7893 11.5307 20 11.0002 20H9.00024C8.46981 20 7.9611 19.7893 7.58603 19.4142C7.21096 19.0391 7.00024 18.5304 7.00024 18V2C7.00024 1.46957 7.21096 0.960859 7.58603 0.585786C7.9611 0.210714 8.46981 0 9.00024 0H11.0002C11.5307 0 12.0394 0.210714 12.4145 0.585786C12.7895 0.960859 13.0002 1.46957 13.0002 2V9H19.0002V2C19.0002 1.46957 19.211 0.960859 19.586 0.585786C19.9611 0.210714 20.4698 0 21.0002 0H23.0002C23.5307 0 24.0394 0.210714 24.4145 0.585786C24.7895 0.960859 25.0002 1.46957 25.0002 2ZM4.50024 3H4.00024C3.46981 3 2.9611 3.21071 2.58603 3.58579C2.21096 3.96086 2.00024 4.46957 2.00024 5V9H1.03399C0.775577 8.99618 0.5253 9.09037 0.333511 9.2636C0.141721 9.43684 0.0226482 9.67628 0.000244057 9.93375C-0.00883835 10.0705 0.0103009 10.2077 0.0564729 10.3368C0.102645 10.4659 0.174864 10.5841 0.268643 10.6841C0.362423 10.7841 0.47576 10.8637 0.601616 10.9181C0.727471 10.9724 0.863156 11.0003 1.00024 11H2.00024V15C2.00024 15.5304 2.21096 16.0391 2.58603 16.4142C2.9611 16.7893 3.46981 17 4.00024 17H4.50024C4.63285 17 4.76003 16.9473 4.8538 16.8536C4.94757 16.7598 5.00024 16.6326 5.00024 16.5V3.5C5.00024 3.36739 4.94757 3.24021 4.8538 3.14645C4.76003 3.05268 4.63285 3 4.50024 3ZM32.0002 9.93375C31.9779 9.67671 31.8592 9.43764 31.6679 9.26446C31.4766 9.09129 31.227 8.99682 30.969 9H30.0002V5C30.0002 4.46957 29.7895 3.96086 29.4145 3.58579C29.0394 3.21071 28.5307 3 28.0002 3H27.5002C27.3676 3 27.2405 3.05268 27.1467 3.14645C27.0529 3.24021 27.0002 3.36739 27.0002 3.5V16.5C27.0002 16.6326 27.0529 16.7598 27.1467 16.8536C27.2405 16.9473 27.3676 17 27.5002 17H28.0002C28.5307 17 29.0394 16.7893 29.4145 16.4142C29.7895 16.0391 30.0002 15.5304 30.0002 15V11H31.0002C31.1373 11.0003 31.273 10.9724 31.3989 10.9181C31.5247 10.8637 31.6381 10.7841 31.7318 10.6841C31.8256 10.5841 31.8978 10.4659 31.944 10.3368C31.9902 10.2077 32.0093 10.0705 32.0002 9.93375Z" fill="black"/>
</svg>
